# xmcd
#
# Track frame offsets:
#	150
#	89375
#	186780
#
# Disc length: 4105 seconds
#
# Revision: 1
# Processed by: cddbd v1.4PL0 Copyright (c) Steve Scherf et al.
# Submitted via: audiograbber 1.81.01
#
DISCID=1d100703
DTITLE=Tchaikovsky - Romeo and Juliet
DYEAR=1900
DGENRE=
TTITLE0=Romeo and Juliet
TTITLE1=Hamlet
TTITLE2=Francesca da Rimini
EXTD=
EXTT0=
EXTT1=
EXTT2=
PLAYORDER=
